# xmcd
#
# Track frame offsets:
#   150
#   2585
#   17200
#   36212
#   52397
#   68165
#   86025
#   102350
#   118957
#   133467
#   150350
#   163605
#   177237
#   194142
#   212642
#   223757
#   241727
#
# Disc length: 3380 seconds
#
# Revision: 0
# Processed by: cddbd v1.5.1PL0 Copyright (c) Steve Scherf et al.
# Submitted via: uFREEDB ActiveX Control 1.5
#
DISCID=fc0d3211
DTITLE=Gleydson Rodrigues - Show Brasileiro
DYEAR=2004
DGENRE=Country
TTITLE0=Vinheta Abertura
TTITLE1=Show Brasileiro
TTITLE2=Eu Hoje Vou Me da Bem
TTITLE3=Pout-Pourri - Pocotó, Sou Brasileiro, Rap da Felic
TTITLE4=Gleydson Rodrigues no Rodeio
TTITLE5=Quem quer dinheiro
TTITLE6=Forró Gostoso
TTITLE7=Encheu a mao
TTITLE8=Na Balada
TTITLE9=Vaquinha Julieta-Forró 
TTITLE10=Lambada Chamegar
TTITLE11=Metidinha
TTITLE12=Funk do Touro Bandido
TTITLE13=Funk do Barretão
TTITLE14=Vaquinha Julieta-Funk
TTITLE15=Bailão do Gleydson Rodrigues
TTITLE16=Carnaval Sertanejo
EXTD=\n\n
EXTT0=
EXTT1=
EXTT2=
EXTT3=
EXTT4=
EXTT5=
EXTT6=
EXTT7=
EXTT8=
EXTT9=
EXTT10=
EXTT11=
EXTT12=
EXTT13=
EXTT14=
EXTT15=
EXTT16=
PLAYORDER=
